<svg width="112" height="112" viewBox="0 0 112 112" fill="none" xmlns="http://www.w3.org/2000/svg">
<circle cx="56" cy="56" r="56" fill="#EDEDED"/>
<path d="M42.9939 52V40.848H46.6419C49.1379 40.848 50.4339 41.936 50.4339 44.064C50.4339 46.224 49.1059 47.376 46.6419 47.376H44.9779V52H42.9939ZM44.9779 45.536H46.4339C47.8419 45.536 48.4339 45.104 48.4339 44.096C48.4339 43.088 47.8579 42.688 46.4339 42.688H44.9779V45.536ZM53.5757 52.16C52.5037 52.16 51.7197 51.52 51.7197 50.112V40.848H53.6397V49.984C53.6397 50.336 53.8477 50.48 54.1997 50.48C54.3757 50.48 54.5837 50.448 54.8077 50.384V51.92C54.3757 52.08 53.9437 52.16 53.5757 52.16ZM59.2619 43.952C61.3419 43.952 62.6379 45.12 62.6379 47.024V52H60.8779L60.7179 50.976C60.2539 51.712 59.3579 52.16 58.3179 52.16C56.6539 52.16 55.4699 51.088 55.4699 49.584C55.4699 48.656 55.8859 47.952 56.6539 47.6C57.1819 47.36 57.8539 47.248 58.7499 47.248H60.7179V47.024C60.7179 46.16 60.1419 45.632 59.2299 45.632C58.4299 45.632 57.6779 46.048 57.1019 46.816L55.7099 45.648C56.6539 44.512 57.8219 43.952 59.2619 43.952ZM58.6219 50.528C59.7739 50.528 60.7179 49.712 60.7179 48.688H59.0059C58.3499 48.688 57.9659 48.768 57.7099 48.96C57.5019 49.104 57.3899 49.328 57.3899 49.616C57.3899 50.176 57.8539 50.528 58.6219 50.528ZM64.9359 55.264L66.3439 51.792L63.2559 44.112H65.3679L67.3679 49.584L69.3839 44.112H71.4959L67.0159 55.264H64.9359ZM25.9518 72.208C23.7278 72.208 21.9998 70.88 21.6798 68.848L23.6638 68.352C23.8078 69.68 24.6878 70.432 25.9838 70.432C27.1038 70.432 27.8238 69.872 27.8238 68.928C27.8238 68.16 27.2478 67.68 25.5998 67.024C23.2638 66.112 22.4318 65.264 22.4318 63.648C22.4318 61.84 23.8238 60.608 25.9038 60.608C27.4078 60.608 28.5918 61.296 29.2958 62.64L27.6318 63.664C27.2478 62.832 26.5918 62.384 25.8398 62.384C25.0398 62.384 24.4318 62.912 24.4318 63.6C24.4318 64.336 24.9758 64.752 26.6558 65.408C29.0398 66.32 29.8238 67.168 29.8238 68.752C29.8238 70.832 28.2398 72.208 25.9518 72.208ZM35.6275 63.952C37.4035 63.952 38.4115 65.024 38.4115 66.912V72H36.4915V67.392C36.4915 66.192 36.0275 65.632 35.0355 65.632C33.7715 65.632 33.2435 66.576 33.2435 68.848V72H31.3235V60.848H33.2435V65.008C33.7715 64.32 34.5875 63.952 35.6275 63.952ZM43.7274 72.16C41.2794 72.16 39.7754 70.272 39.7754 68.048C39.7754 65.808 41.2794 63.952 43.7274 63.952C46.1594 63.952 47.6794 65.808 47.6794 68.048C47.6794 70.272 46.1594 72.16 43.7274 72.16ZM43.7274 70.48C45.1834 70.48 45.7594 69.328 45.7594 68.048C45.7594 66.752 45.1834 65.632 43.7274 65.632C42.2714 65.632 41.6954 66.752 41.6954 68.048C41.6954 69.328 42.2714 70.48 43.7274 70.48ZM50.3866 72L47.9546 64.112H50.0026L51.3466 69.056L52.8346 64.112H54.4826L55.9706 69.04L57.3306 64.112H59.3786L56.9466 72H55.2186L53.6666 66.832L52.1146 72H50.3866ZM64.6055 63.952C65.1335 63.952 65.5975 64.08 66.1095 64.4L65.1815 66.096C64.9095 65.92 64.6055 65.824 64.2215 65.824C63.0535 65.824 62.4775 66.544 62.4775 68.032V72H60.5575V64.112H62.4935V65.456C62.8295 64.48 63.7095 63.952 64.6055 63.952ZM73.4025 67.952C73.4025 68.192 73.3865 68.432 73.3545 68.688H67.9465C68.0265 69.728 68.6665 70.416 69.9145 70.416C70.6185 70.416 71.2585 70.192 71.8025 69.568L73.1305 70.736C72.2665 71.696 71.2265 72.16 69.8985 72.16C67.1785 72.16 66.0265 70.208 66.0265 68.096C66.0265 66.032 67.1465 63.952 69.7705 63.952C72.2185 63.952 73.4025 65.76 73.4025 67.952ZM67.9305 67.168H71.5625C71.5305 66.16 70.7625 65.552 69.7545 65.552C68.5865 65.552 68.0425 66.384 67.9305 67.168ZM81.6994 67.952C81.6994 68.192 81.6834 68.432 81.6514 68.688H76.2434C76.3234 69.728 76.9634 70.416 78.2114 70.416C78.9154 70.416 79.5554 70.192 80.0994 69.568L81.4274 70.736C80.5634 71.696 79.5234 72.16 78.1954 72.16C75.4754 72.16 74.3234 70.208 74.3234 68.096C74.3234 66.032 75.4434 63.952 78.0674 63.952C80.5154 63.952 81.6994 65.76 81.6994 67.952ZM76.2274 67.168H79.8594C79.8274 66.16 79.0594 65.552 78.0514 65.552C76.8834 65.552 76.3394 66.384 76.2274 67.168ZM85.0523 72.16C83.9803 72.16 83.1963 71.52 83.1963 70.112V60.848H85.1163V69.984C85.1163 70.336 85.3243 70.48 85.6763 70.48C85.8523 70.48 86.0603 70.448 86.2843 70.384V71.92C85.8523 72.08 85.4203 72.16 85.0523 72.16ZM88.1614 72V69.92H90.0974V72H88.1614Z" fill="#171717"/>
</svg>
