<svg width="112" height="112" viewBox="0 0 112 112" fill="none" xmlns="http://www.w3.org/2000/svg">
<circle cx="56" cy="56" r="56" fill="#EDEDED"/>
<path d="M47.4986 40.848H49.7066L45.2586 52H43.7546L39.2906 40.848H41.4986L44.5066 48.736L47.4986 40.848ZM50.8454 42.624V40.848H52.8614V42.624H50.8454ZM50.8934 52V44.112H52.8134V52H50.8934ZM61.7697 47.952C61.7697 48.192 61.7537 48.432 61.7217 48.688H56.3137C56.3937 49.728 57.0337 50.416 58.2817 50.416C58.9857 50.416 59.6257 50.192 60.1697 49.568L61.4977 50.736C60.6337 51.696 59.5937 52.16 58.2657 52.16C55.5457 52.16 54.3937 50.208 54.3937 48.096C54.3937 46.032 55.5137 43.952 58.1377 43.952C60.5857 43.952 61.7697 45.76 61.7697 47.952ZM56.2977 47.168H59.9297C59.8977 46.16 59.1297 45.552 58.1217 45.552C56.9537 45.552 56.4097 46.384 56.2977 47.168ZM64.7226 52L62.2906 44.112H64.3386L65.6826 49.056L67.1706 44.112H68.8186L70.3066 49.04L71.6666 44.112H73.7146L71.2826 52H69.5546L68.0026 46.832L66.4506 52H64.7226ZM30.3299 72V60.848H33.9779C36.4739 60.848 37.7699 61.936 37.7699 64.064C37.7699 66.224 36.4419 67.376 33.9779 67.376H32.3139V72H30.3299ZM32.3139 65.536H33.7699C35.1779 65.536 35.7699 65.104 35.7699 64.096C35.7699 63.088 35.1939 62.688 33.7699 62.688H32.3139V65.536ZM43.1055 63.952C43.6335 63.952 44.0975 64.08 44.6095 64.4L43.6815 66.096C43.4095 65.92 43.1055 65.824 42.7215 65.824C41.5535 65.824 40.9775 66.544 40.9775 68.032V72H39.0575V64.112H40.9935V65.456C41.3295 64.48 42.2095 63.952 43.1055 63.952ZM48.4305 72.16C45.9825 72.16 44.4785 70.272 44.4785 68.048C44.4785 65.808 45.9825 63.952 48.4305 63.952C50.8625 63.952 52.3825 65.808 52.3825 68.048C52.3825 70.272 50.8625 72.16 48.4305 72.16ZM48.4305 70.48C49.8865 70.48 50.4625 69.328 50.4625 68.048C50.4625 66.752 49.8865 65.632 48.4305 65.632C46.9745 65.632 46.3985 66.752 46.3985 68.048C46.3985 69.328 46.9745 70.48 48.4305 70.48ZM53.8849 62.624V60.848H55.9009V62.624H53.8849ZM53.9969 75.424C53.6289 75.424 53.1969 75.344 52.7649 75.184V73.648C52.9889 73.712 53.1969 73.744 53.3729 73.744C53.7249 73.744 53.9329 73.6 53.9329 73.248V64.112H55.8529V73.376C55.8529 74.784 55.0689 75.424 53.9969 75.424ZM64.8244 67.952C64.8244 68.192 64.8084 68.432 64.7764 68.688H59.3684C59.4484 69.728 60.0884 70.416 61.3364 70.416C62.0404 70.416 62.6804 70.192 63.2244 69.568L64.5524 70.736C63.6884 71.696 62.6484 72.16 61.3204 72.16C58.6004 72.16 57.4484 70.208 57.4484 68.096C57.4484 66.032 58.5684 63.952 61.1924 63.952C63.6404 63.952 64.8244 65.76 64.8244 67.952ZM59.3524 67.168H62.9844C62.9524 66.16 62.1844 65.552 61.1764 65.552C60.0084 65.552 59.4644 66.384 59.3524 67.168ZM69.5373 72.16C66.9613 72.16 65.7133 70.16 65.7133 68.08C65.7133 66 66.9453 63.952 69.5213 63.952C71.0893 63.952 72.3213 64.704 72.9293 66.272L71.1053 66.992C70.8973 66.16 70.3053 65.632 69.5213 65.632C68.1933 65.632 67.6813 66.832 67.6813 68.08C67.6813 69.328 68.1773 70.48 69.5213 70.48C70.2893 70.48 70.8973 69.968 71.1053 69.152L72.8493 69.824C72.3213 71.296 71.1053 72.16 69.5373 72.16ZM78.5155 65.632H76.5475V69.648C76.5475 70.272 76.9315 70.56 77.5555 70.56C77.8275 70.56 78.1635 70.496 78.5155 70.384V71.92C78.0355 72.08 77.5555 72.16 77.0755 72.16C75.7475 72.16 74.6275 71.472 74.6275 69.792V65.632H73.3475V64.112H74.6275V62.592L76.5475 61.168V64.112H78.5155V65.632ZM80.5833 72V69.92H82.5193V72H80.5833Z" fill="#171717"/>
</svg>
