<svg width="112" height="112" viewBox="0 0 112 112" fill="none" xmlns="http://www.w3.org/2000/svg">
<circle cx="56" cy="56" r="56" fill="#EDEDED"/>
<path d="M67.25 54.3125H64.8594V46.4375C64.8594 43.952 62.8449 41.9375 60.3594 41.9375H51.6406C49.1551 41.9375 47.1406 43.952 47.1406 46.4375V54.3125H44.75C44.1277 54.3125 43.625 54.8152 43.625 55.4375V68.9375C43.625 69.5598 44.1277 70.0625 44.75 70.0625H67.25C67.8723 70.0625 68.375 69.5598 68.375 68.9375V55.4375C68.375 54.8152 67.8723 54.3125 67.25 54.3125ZM56.9844 62.6445V64.5078C56.9844 64.6625 56.8578 64.7891 56.7031 64.7891H55.2969C55.1422 64.7891 55.0156 64.6625 55.0156 64.5078V62.6445C54.7254 62.4362 54.5088 62.1411 54.397 61.8018C54.2851 61.4625 54.2839 61.0965 54.3933 60.7564C54.5027 60.4163 54.7173 60.1198 55.006 59.9094C55.2947 59.699 55.6427 59.5856 56 59.5856C56.3573 59.5856 56.7053 59.699 56.994 59.9094C57.2827 60.1198 57.4973 60.4163 57.6067 60.7564C57.7161 61.0965 57.7149 61.4625 57.603 61.8018C57.4912 62.1411 57.2746 62.4362 56.9844 62.6445ZM62.3281 54.3125H49.6719V46.4375C49.6719 45.3512 50.5543 44.4688 51.6406 44.4688H60.3594C61.4457 44.4688 62.3281 45.3512 62.3281 46.4375V54.3125Z" fill="black"/>
</svg>
